<svg xmlns="http://www.w3.org/2000/svg" width="32" height="32" viewBox="0 0 32 32">
<!-- Capturia original cursor glyph (MIT, same licence as the repository). Hotspot 16,10. -->
<path d="M12 4C10.6 4 9.5 5.1 9.5 6.5V15L7.3 12.2C6.4 11.1 4.8 10.9 3.8 11.8C2.9 12.6 2.8 14 3.5 15L8.2 22.4C10 25.4 13.2 27.2 16.7 27.2H19C23.4 27.2 27 23.6 27 19.2V9.5C27 8.1 25.9 7 24.5 7C23.1 7 22 8.1 22 9.5V6C22 4.6 20.9 3.5 19.5 3.5C18.1 3.5 17 4.6 17 6V5C17 3.6 15.9 2.5 14.5 2.5C13.1 2.5 12 3.6 12 5Z" fill="#f2f2f2" stroke="#212121" stroke-width="1.6" stroke-linejoin="round"/>
<path d="M14.5 6V13M19.5 6.5V13M24.5 10V14" fill="none" stroke="#212121" stroke-width="1.2" stroke-linecap="round"/>
</svg>
